<svg width="60" height="60" viewBox="0 0 60 60" fill="none" xmlns="http://www.w3.org/2000/svg">
<circle cx="30" cy="30" r="30" fill="#B63232"/>
<path d="M23.9375 29.125C24.7993 29.125 25.6527 28.9553 26.4489 28.6255C27.2451 28.2957 27.9685 27.8123 28.5779 27.2029C29.1873 26.5935 29.6707 25.8701 30.0005 25.0739C30.3303 24.2777 30.5 23.4243 30.5 22.5625C30.5 21.7007 30.3303 20.8473 30.0005 20.0511C29.6707 19.2549 29.1873 18.5315 28.5779 17.9221C27.9685 17.3127 27.2451 16.8293 26.4489 16.4995C25.6527 16.1697 24.7993 16 23.9375 16C22.197 16 20.5278 16.6914 19.2971 17.9221C18.0664 19.1528 17.375 20.822 17.375 22.5625C17.375 24.303 18.0664 25.9722 19.2971 27.2029C20.5278 28.4336 22.197 29.125 23.9375 29.125ZM35.0208 40.236C36.1335 40.5788 37.5204 40.7917 39.25 40.7917C48 40.7917 48 35.3229 48 35.3229C48 34.4527 47.6543 33.6181 47.0389 33.0027C46.4236 32.3874 45.589 32.0417 44.7188 32.0417H35.0121C35.8597 32.9235 36.3322 34.0998 36.3304 35.3229V36.1323L36.326 36.2533C36.2951 36.7404 36.2199 37.2236 36.1015 37.6971C35.8762 38.594 35.5121 39.4502 35.0223 40.2346L35.0208 40.236ZM44.3542 24.0208C44.3542 24.6911 44.2221 25.3548 43.9656 25.9741C43.7091 26.5934 43.3332 27.1561 42.8592 27.63C42.3852 28.104 41.8225 28.48 41.2033 28.7365C40.584 28.993 39.9203 29.125 39.25 29.125C38.5797 29.125 37.916 28.993 37.2967 28.7365C36.6775 28.48 36.1148 28.104 35.6408 27.63C35.1668 27.1561 34.7909 26.5934 34.5344 25.9741C34.2779 25.3548 34.1458 24.6911 34.1458 24.0208C34.1458 22.6671 34.6836 21.3689 35.6408 20.4116C36.598 19.4544 37.8963 18.9167 39.25 18.9167C40.6037 18.9167 41.902 19.4544 42.8592 20.4116C43.8164 21.3689 44.3542 22.6671 44.3542 24.0208ZM13 35.3229C13 34.4527 13.3457 33.6181 13.9611 33.0027C14.5764 32.3874 15.411 32.0417 16.2812 32.0417H31.5938C32.464 32.0417 33.2986 32.3874 33.9139 33.0027C34.5293 33.6181 34.875 34.4527 34.875 35.3229V36.0521C34.875 36.0521 34.875 43.7083 23.9375 43.7083C13 43.7083 13 36.0521 13 36.0521V35.3229Z" fill="white"/>
</svg>
