<svg width="60" height="60" viewBox="0 0 60 60" fill="none" xmlns="http://www.w3.org/2000/svg">
<circle cx="30" cy="30" r="30" fill="#EA971A"/>
<path d="M29.5 12C26.0388 12 22.6554 13.0264 19.7775 14.9493C16.8997 16.8722 14.6566 19.6053 13.3321 22.803C12.0076 26.0007 11.661 29.5194 12.3363 32.9141C13.0115 36.3087 14.6782 39.4269 17.1256 41.8744C19.5731 44.3218 22.6913 45.9885 26.0859 46.6637C29.4806 47.339 32.9993 46.9924 36.197 45.6679C39.3947 44.3434 42.1278 42.1003 44.0507 39.2225C45.9736 36.3446 47 32.9612 47 29.5C46.9951 24.8602 45.1498 20.4119 41.869 17.131C38.5881 13.8502 34.1398 12.0049 29.5 12ZM25.0627 36.2308H33.9373C33.0337 39.3168 31.5192 42.0983 29.5 44.2892C27.4808 42.0983 25.9663 39.3168 25.0627 36.2308ZM24.4519 33.5385C24.0055 30.8647 24.0055 28.1353 24.4519 25.4615H34.5481C34.9945 28.1353 34.9945 30.8647 34.5481 33.5385H24.4519ZM14.6923 29.5C14.6911 28.1344 14.8797 26.7752 15.2527 25.4615H21.7243C21.3227 28.1389 21.3227 30.8611 21.7243 33.5385H15.2527C14.8797 32.2248 14.6911 30.8656 14.6923 29.5ZM33.9373 22.7692H25.0627C25.9663 19.6832 27.4808 16.9017 29.5 14.7108C31.5192 16.9017 33.0337 19.6832 33.9373 22.7692ZM37.2757 25.4615H43.7474C44.4945 28.102 44.4945 30.898 43.7474 33.5385H37.2757C37.6773 30.8611 37.6773 28.1389 37.2757 25.4615ZM42.6873 22.7692H36.7255C36.0385 20.066 34.8848 17.5035 33.3163 15.1971C35.3202 15.7356 37.1891 16.6875 38.803 17.9916C40.4169 19.2957 41.74 20.9231 42.6873 22.7692ZM25.6837 15.1971C24.1152 17.5035 22.9615 20.066 22.2745 22.7692H16.3127C17.26 20.9231 18.5831 19.2957 20.197 17.9916C21.8109 16.6875 23.6798 15.7356 25.6837 15.1971ZM16.3127 36.2308H22.2745C22.9615 38.934 24.1152 41.4965 25.6837 43.8029C23.6798 43.2644 21.8109 42.3125 20.197 41.0084C18.5831 39.7043 17.26 38.0769 16.3127 36.2308ZM33.3163 43.8029C34.8848 41.4965 36.0385 38.934 36.7255 36.2308H42.6873C41.74 38.0769 40.4169 39.7043 38.803 41.0084C37.1891 42.3125 35.3202 43.2644 33.3163 43.8029Z" fill="white"/>
</svg>
